# xmcd CD database file
#
# Track frame offsets:
#	150
#	16454
#	28562
#	52178
#	77854
#	89576
#	102200
#	118679
#	128653
#	148394
#	158240
#	169519
#	180646
#	196488
#	207603
#	222670
#	236201
#
# Disc length: 3288 seconds
#
# Revision: 2
# Processed by: cddbd v1.5.2PL0 Copyright (c) Steve Scherf et al.
# Submitted via: CDex 1.70beta2
#
DISCID=030cd611
DTITLE=Various Artist - Autos
DYEAR=2005
DGENRE=Misc
TTITLE0=Ted Herold - Freiheit Ist Ein Abenteuer (Intro) and Emscherkurve 77 - Intercity Linie No. 4
TTITLE1=Harald "Sack" Ziegler - Meine Helden
TTITLE2=You Can Drive I Must Drink - Er Ist Ein Kerl (Der 30t Diesel)
TTITLE3=Mas 2008 - Wir Sind Die An Denen Alles Hängen Bleibt
TTITLE4=Na Sabine, Wie Siehts Aus In München - Big Bad Sabine
TTITLE5=Zwakkelmann - Hey Boss Ich Pfeif Aufs Geld
TTITLE6=Böhle 77 and The Freakshow - Ich Werd Gesucht In Bremerhaven
TTITLE7=Graubrot - Mein Laster Ist Mein Laster
TTITLE8=Colt 45 - Der Alte Mann Und Sein Grosses Haus
TTITLE9=Rockformation Discokugel - Gunter, Lackier Deine Gitarre Um
TTITLE10=Lokalmatadore - Gefangene Der Strasse
TTITLE11=Mofagang - Goldstück
TTITLE12=Presskopp - Dieselknecht
TTITLE13=Hidden Technology - Rheinhausen, Du Darfst Nicht Untergehen
TTITLE14=4 Aus 49 - Schall Und Rauch
TTITLE15=Substyle - Ich Lieb' Die Bullen
TTITLE16=Uwe Vogel - Outro
EXTD=YEAR: 2005
EXTT0=
EXTT1=
EXTT2=
EXTT3=
EXTT4=
EXTT5=
EXTT6=
EXTT7=
EXTT8=
EXTT9=
EXTT10=
EXTT11=
EXTT12=
EXTT13=
EXTT14=
EXTT15=
EXTT16=
PLAYORDER=
